<svg width="512" height="512" viewBox="0 0 512 512" fill="none" xmlns="http://www.w3.org/2000/svg">
  <rect width="512" height="512" fill="black"/>
  <path d="M300 160C300 155.582 303.582 152 308 152H332C336.418 152 340 155.582 340 160V176C340 180.418 336.418 184 332 184H308C303.582 184 300 180.418 300 176V160Z" fill="white"/>
  <path d="M184 240L192 260V296C192 300.418 188.418 304 184 304H172C167.582 304 164 300.418 164 296V268L172 248H184Z" fill="white"/>
  <path d="M196 240C200.418 240 204 236.418 204 232V212C204 207.582 200.418 204 196 204H180C175.582 204 172 207.582 172 212V228C172 232.418 175.582 236 180 236H192C192 236 192 240 196 240Z" fill="white"/>
  <path d="M404 160L412 140V104C412 99.5817 408.418 96 404 96H392C387.582 96 384 99.5817 384 104V132L392 152H404Z" fill="white"/>
  <path d="M388 160C392.418 160 396 163.582 396 168V188C396 192.418 392.418 196 388 196H372C367.582 196 364 192.418 364 188V172C364 167.582 367.582 164 372 164H384C384 164 384 160 388 160Z" fill="white"/>
  <path d="M408 160V248H396V304C396 313.389 389.389 320 380 320H348C338.611 320 332 313.389 332 304V248H320V304C320 313.389 313.389 320 304 320H272C262.611 320 256 313.389 256 304V248H244V304C244 313.389 237.389 320 228 320H196C186.611 320 180 313.389 180 304V248H168V304C168 334.912 193.088 360 224 360H288C318.912 360 344 334.912 344 304V248H332V304C332 320.569 343.431 332 360 332H380C396.569 332 408 320.569 408 304V160Z" fill="white"/>
  <path d="M360 288C365.523 288 370 283.523 370 278C370 272.477 365.523 268 360 268C354.477 268 350 272.477 350 278C350 283.523 354.477 288 360 288Z" fill="white"/>
  <path d="M288 288C293.523 288 298 283.523 298 278C298 272.477 293.523 268 288 268C282.477 268 278 272.477 278 278C278 283.523 282.477 288 288 288Z" fill="white"/>
  <path d="M216 288C221.523 288 226 283.523 226 278C226 272.477 221.523 268 216 268C210.477 268 206 272.477 206 278C206 283.523 210.477 288 216 288Z" fill="white"/>
  <path d="M408 248V304C408 320.569 396.569 332 380 332H360C343.431 332 332 320.569 332 304V248H344V304C344 334.912 318.912 360 288 360H224C193.088 360 168 334.912 168 304V248H180V304C180 313.389 186.611 320 196 320H228C237.389 320 244 313.389 244 304V248H256V304C256 313.389 262.611 320 272 320H304C313.389 320 320 313.389 320 304V248H332V304C332 320.569 343.431 332 360 332H380C396.569 332 408 320.569 408 304V248Z" fill="white"/>
  <path d="M288 240C293.523 240 298 235.523 298 230V220C298 214.477 293.523 210 288 210C282.477 210 278 214.477 278 220V230C278 235.523 282.477 240 288 240Z" fill="white"/>
  <path d="M360 240C365.523 240 370 235.523 370 230V220C370 214.477 365.523 210 360 210C354.477 210 350 214.477 350 220V230C350 235.523 354.477 240 360 240Z" fill="white"/>
  <path d="M216 240C221.523 240 226 235.523 226 230V220C226 214.477 221.523 210 216 210C210.477 210 206 214.477 206 220V230C206 235.523 210.477 240 216 240Z" fill="white"/>
  <path d="M408 304C408 334.912 382.912 360 352 360H344V304C344 273.088 369.088 248 400 248V304H408Z" fill="white"/>
  <path d="M168 304C168 334.912 142.912 360 112 360H104V304C104 273.088 129.088 248 160 248V304H168Z" fill="white"/>
  <path d="M408 360V504H352V360H408Z" fill="white"/>
  <path d="M160 360V504H104V360H160Z" fill="white"/>
  <path d="M288 280C293.523 280 298 275.523 298 270C298 264.477 293.523 260 288 260C282.477 260 278 264.477 278 270C278 275.523 282.477 280 288 280Z" fill="white"/>
  <path d="M360 280C365.523 280 370 275.523 370 270C370 264.477 365.523 260 360 260C354.477 260 350 264.477 350 270C350 275.523 354.477 280 360 280Z" fill="white"/>
  <path d="M216 280C221.523 280 226 275.523 226 270C226 264.477 221.523 260 216 260C210.477 260 206 264.477 206 270C206 275.523 210.477 280 216 280Z" fill="white"/>
</svg>